# xmcd
#
# Track frame offsets:
#	150
#	11851
#	26610
#	43917
#	57690
#	72976
#	83444
#	97699
#	109994
#	127968
#	142201
#	151988
#	167780
#	185744
#	203867
#	218959
#
# Disc length: 3182 seconds
#
# Revision: 0
# Processed by: cddbd v1.5.2PL0 Copyright (c) Steve Scherf et al.
# Submitted via: EZCDAudioConverter 2.3.4.1
#
DISCID=eb0c6c10
DTITLE=Full Circle - Sweet Sixteen
DYEAR=1900
DGENRE=
TTITLE0=A Better Friend
TTITLE1=No You Can't Have My Victory
TTITLE2=God Walks The Dark Hills
TTITLE3=Hit With The Holy Ghost
TTITLE4=The Potter Knows The Clay
TTITLE5=There's Comin' A Mornin'
TTITLE6=If Anybody Knows
TTITLE7=Praise His Name
TTITLE8=The Holy Hills Of Heaven
TTITLE9=You're Still God
TTITLE10=God's Holy Spirit
TTITLE11=Grip Of Grace
TTITLE12=You Need My Jesus
TTITLE13=No Other Way
TTITLE14=What A Beautiful Day For The Lord To Come Again
TTITLE15=Never Too Late For The Lord
EXTD=
EXTT0=
EXTT1=
EXTT2=
EXTT3=
EXTT4=
EXTT5=
EXTT6=
EXTT7=
EXTT8=
EXTT9=
EXTT10=
EXTT11=
EXTT12=
EXTT13=
EXTT14=
EXTT15=
PLAYORDER=
